<?xml version="1.0" encoding="UTF-8"?>
<svg width="24" height="24" version="1.1" xmlns="http://www.w3.org/2000/svg">
 <path d="m2.5866 3.1788c-0.441 0-0.82776 0.16559-1.1585 0.49634s-0.49527 0.7164-0.49527 1.1574v14.333c0 0.441 0.16452 0.82666 0.49527 1.1574s0.71751 0.49634 1.1585 0.49634h18.743c0.441 0 0.82665-0.16559 1.1574-0.49634s0.49634-0.7164 0.49634-1.1574v-14.333c0-0.441-0.16559-0.82665-0.49634-1.1574s-0.7164-0.49634-1.1574-0.49634zm0 3.9686h18.743v12.018h-18.743zm1.7744 1.9229v1.3351h15.151v-1.3351zm0 3.3797v1.3361h15.151v-1.3361zm0 3.3807v1.3361h10.737v-1.3361z" fill="#9aa0a6" stroke-width=".55125"/>
</svg>
