<?xml version="1.0" encoding="UTF-8" standalone="no"?>
<svg
   height="38"
   width="48"
   version="1.1"
   id="svg4"
   sodipodi:docname="plot.svg"
   inkscape:version="1.1.1 (3bf5ae0d25, 2021-09-20)"
   xmlns:inkscape="http://www.inkscape.org/namespaces/inkscape"
   xmlns:sodipodi="http://sodipodi.sourceforge.net/DTD/sodipodi-0.dtd"
   xmlns="http://www.w3.org/2000/svg"
   xmlns:svg="http://www.w3.org/2000/svg">
  <defs
     id="defs8">
    <marker
       style="overflow:visible"
       id="TriangleOutS"
       refX="0"
       refY="0"
       orient="auto"
       inkscape:stockid="TriangleOutS"
       inkscape:isstock="true">
      <path
         transform="scale(0.2)"
         style="fill:context-stroke;fill-rule:evenodd;stroke:context-stroke;stroke-width:1pt"
         d="M 5.77,0 -2.88,5 V -5 Z"
         id="path12068" />
    </marker>
    <marker
       style="overflow:visible"
       id="Arrow1Send"
       refX="0"
       refY="0"
       orient="auto"
       inkscape:stockid="Arrow1Send"
       inkscape:isstock="true">
      <path
         transform="matrix(-0.2,0,0,-0.2,-1.2,0)"
         style="fill:context-stroke;fill-rule:evenodd;stroke:context-stroke;stroke-width:1pt"
         d="M 0,0 5,-5 -12.5,0 5,5 Z"
         id="path11935" />
    </marker>
    <marker
       style="overflow:visible"
       id="Arrow2Mend"
       refX="0"
       refY="0"
       orient="auto"
       inkscape:stockid="Arrow2Mend"
       inkscape:isstock="true">
      <path
         transform="scale(-0.6)"
         d="M 8.7185878,4.0337352 -2.2072895,0.01601326 8.7185884,-4.0017078 c -1.7454984,2.3720609 -1.7354408,5.6174519 -6e-7,8.035443 z"
         style="fill:context-stroke;fill-rule:evenodd;stroke:context-stroke;stroke-width:0.625;stroke-linejoin:round"
         id="path11947" />
    </marker>
    <marker
       style="overflow:visible"
       id="TriangleOutS-6"
       refX="0"
       refY="0"
       orient="auto"
       inkscape:stockid="TriangleOutS"
       inkscape:isstock="true">
      <path
         transform="scale(0.2)"
         style="fill:context-stroke;fill-rule:evenodd;stroke:context-stroke;stroke-width:1pt"
         d="M 5.77,0 -2.88,5 V -5 Z"
         id="path12068-1" />
    </marker>
  </defs>
  <sodipodi:namedview
     id="namedview6"
     pagecolor="#505050"
     bordercolor="#eeeeee"
     borderopacity="1"
     inkscape:pageshadow="0"
     inkscape:pageopacity="0"
     inkscape:pagecheckerboard="0"
     showgrid="false"
     inkscape:zoom="9.09375"
     inkscape:cx="44.261168"
     inkscape:cy="9.7869416"
     inkscape:window-width="2473"
     inkscape:window-height="1508"
     inkscape:window-x="1166"
     inkscape:window-y="152"
     inkscape:window-maximized="0"
     inkscape:current-layer="svg4" />
  <path
     style="fill:none;stroke:#9aa0a6;stroke-width:1.5;stroke-linecap:square;stroke-linejoin:miter;stroke-miterlimit:4;stroke-dasharray:none;stroke-opacity:1;marker-end:url(#TriangleOutS)"
     d="M 3.7707905,34.991389 H 43.718213"
     id="path10726"
     sodipodi:nodetypes="cc" />
  <path
     style="fill:none;stroke:#9aa0a6;stroke-width:1.5;stroke-linecap:square;stroke-linejoin:miter;stroke-miterlimit:4;stroke-dasharray:none;stroke-opacity:1;marker-end:url(#TriangleOutS-6)"
     d="M 3.7707905,34.991389 V 3.109276"
     id="path10726-0"
     sodipodi:nodetypes="cc" />
  <path
     d="m 3.8955938,9.2096927 0.079232,7.67e-4 0.079224,0.0022 0.079223,0.0038 0.079233,0.0052 0.079225,0.0067 0.079233,0.0082 0.079223,0.0097 0.079234,0.01115 0.079225,0.01263 0.079234,0.01412 0.079223,0.01559 0.079234,0.01707 0.079224,0.01854 0.079233,0.02001 0.079223,0.02148 0.079233,0.02294 0.079225,0.0244 0.079233,0.02586 0.079223,0.02731 0.079233,0.02875 0.079224,0.0302 0.079233,0.03163 0.079223,0.03307 0.079234,0.0345 0.079225,0.03592 0.079233,0.03733 0.079223,0.03875 0.079234,0.04015 0.079225,0.04153 0.079223,0.04294 0.079232,0.04432 0.079234,0.04571 0.079224,0.04707 0.079223,0.04843 0.079233,0.04979 0.079224,0.05113 0.079233,0.05247 0.079223,0.05379 0.079233,0.05512 0.079224,0.05644 0.079232,0.05774 0.079223,0.05904 0.079232,0.06032 0.079225,0.06159 0.079234,0.06286 0.079223,0.06412 0.079233,0.06536 0.079224,0.06661 0.079233,0.06783 0.079223,0.06904 0.079233,0.07025 0.079224,0.07145 0.079234,0.07263 0.079223,0.0738 0.079233,0.07495 0.079222,0.0761 0.079232,0.07724 0.079222,0.07836 0.079232,0.07946 0.079222,0.08056 0.079232,0.08165 0.079222,0.08272 0.079222,0.08377 0.079232,0.08481 0.079222,0.08585 0.079232,0.08688 0.079232,0.08787 0.079222,0.08886 0.079222,0.08984 0.079232,0.0908 0.079222,0.09174 0.079232,0.09269 0.079222,0.09359 0.079232,0.09451 0.079222,0.09539 0.079232,0.09626 0.079222,0.09712 0.079232,0.09797 0.07922,0.09879 0.07923,0.0996 0.07922,0.100399 0.07923,0.101173 0.07922,0.101942 0.07923,0.102686 0.07922,0.103417 0.07923,0.104134 0.07922,0.104837 0.07923,0.105508 0.07922,0.106182 0.07923,0.106824 0.07922,0.107461 0.07923,0.108066 0.07922,0.108675 0.07922,0.109243 0.07923,0.109815 0.07923,0.110355 0.07922,0.110884 0.07923,0.111393 0.07922,0.111883 0.07922,0.112358 0.07923,0.112818 0.07922,0.113253 0.07923,0.113674 0.07922,0.114084 0.07923,0.114464 0.07922,0.114829 0.07923,0.115175 0.07922,0.115509 0.07923,0.115823 0.07922,0.116117 0.07923,0.116387 0.07922,0.116643 0.07923,0.116884 0.07922,0.117103 0.07923,0.117308 0.07922,0.117483 0.07923,0.117651 0.07922,0.117799 0.07923,0.117914 0.07922,0.118034 0.07923,0.118118 0.07922,0.118185 0.07923,0.118244 0.07922,0.118273 0.07922,0.118287 0.07923,0.118282 0.07923,0.118258 0.07922,0.118221 0.07922,0.118156 0.07923,0.118077 0.07922,0.11798 0.07923,0.117856 0.07922,0.117724 0.07923,0.117572 0.07922,0.117403 0.07923,0.1172 0.07922,0.116999 0.07923,0.116768 0.07922,0.116518 0.07923,0.116255 0.07922,0.11597 0.07923,0.115664 0.07922,0.115349 0.07923,0.115003 0.07922,0.114649 0.07923,0.114273 0.07922,0.113879 0.07923,0.113459 0.07922,0.11304 0.07923,0.112584 0.07922,0.112133 0.07923,0.111634 0.07922,0.111146 0.07923,0.110618 0.07922,0.110085 0.07922,0.10953 0.07923,0.108965 0.07923,0.108368 0.07922,0.107768 0.07923,0.107146 0.07922,0.106503 0.07922,0.105844 0.07923,0.105179 0.07922,0.104486 0.07923,0.103776 0.07922,0.103052 0.07923,0.102321 0.07922,0.101561 0.07923,0.100785 0.07922,0.100005 0.07923,0.0992 0.07922,0.09837 0.07923,0.09755 0.07922,0.09669 0.07923,0.09583 0.07922,0.09495 0.07923,0.09404 0.07922,0.09315 0.07923,0.09221 0.07922,0.09127 0.07923,0.09032 0.07922,0.08935 0.07923,0.08837 0.07922,0.08737 0.07923,0.08636 0.07922,0.08533 0.07923,0.08429 0.07922,0.08324 0.07922,0.08219 0.07923,0.0811 0.07923,0.08002 0.07922,0.07891 0.07922,0.07778 0.07923,0.07666 0.07922,0.07553 0.07923,0.07437 0.07922,0.07321 0.07923,0.07203 0.07922,0.07085 0.07923,0.06965 0.07922,0.06843 0.07923,0.06722 0.07922,0.06599 0.07923,0.06475 0.07922,0.0635 0.07923,0.06223 0.07922,0.06096 0.07923,0.05967 0.07922,0.05838 0.07923,0.05709 0.07922,0.05578 0.07923,0.05447 0.07922,0.05314 0.07923,0.0518 0.07922,0.05046 0.07923,0.04911 0.07922,0.04775 0.07923,0.04638 0.07922,0.04501 0.07923,0.04362 0.07922,0.04225 0.07923,0.04085 0.07922,0.03945 0.07922,0.03804 0.07923,0.03663 0.07922,0.0352 0.07923,0.03378 0.07922,0.03235 0.07923,0.03092 0.07922,0.02946 0.07923,0.02803 0.07922,0.02658 0.07923,0.02513 0.07922,0.02368 0.07923,0.02222 0.07922,0.02074 0.07923,0.01929 0.07922,0.01781 0.07923,0.01634 0.07922,0.01486 0.07923,0.01337 0.07922,0.0119 0.07923,0.01042 0.07922,0.009 0.07923,0.0074 0.07922,0.006 0.07923,0.0044 0.07922,0.003 0.07923,0.0015 h 0.07922 l 0.07923,-0.0015 0.07922,-0.003 0.07923,-0.0044 0.07922,-0.006 0.07922,-0.0074 0.07923,-0.009 0.07923,-0.01042 0.07922,-0.0119 0.07922,-0.01337 0.07923,-0.01486 0.07922,-0.01634 0.07923,-0.01781 0.07922,-0.01929 0.07923,-0.02074 0.07922,-0.02222 0.07923,-0.02368 0.07922,-0.02513 0.07923,-0.02658 0.07922,-0.02803 0.07923,-0.02946 0.07922,-0.03092 0.07923,-0.03235 0.07922,-0.03378 0.07923,-0.0352 0.07922,-0.03663 0.07923,-0.03804 0.07922,-0.03945 0.07923,-0.04085 0.07922,-0.04225 0.07923,-0.04362 0.07922,-0.04501 0.07923,-0.04638 0.07922,-0.04775 0.07922,-0.04911 0.07923,-0.05046 0.07923,-0.0518 0.07922,-0.05314 0.07923,-0.05447 0.07922,-0.05578 0.07922,-0.05709 0.07923,-0.05838 0.07923,-0.05967 0.07922,-0.06096 0.07922,-0.06223 0.07923,-0.0635 0.07922,-0.06475 0.07923,-0.06599 0.07923,-0.06722 0.07922,-0.06843 0.07922,-0.06965 0.07923,-0.07085 0.07922,-0.07203 0.07923,-0.07321 0.07922,-0.07437 0.07923,-0.07553 0.07922,-0.07666 0.07923,-0.07778 0.07922,-0.07891 0.07923,-0.08002 0.07922,-0.0811 0.07923,-0.08219 0.07922,-0.08324 0.07923,-0.08429 0.07922,-0.08533 0.07923,-0.08636 0.07922,-0.08737 0.07922,-0.08837 0.07923,-0.08935 0.07922,-0.09032 0.07923,-0.09127 0.07923,-0.09221 0.07922,-0.09315 0.07922,-0.09404 0.07923,-0.09495 0.07923,-0.09583 0.07922,-0.09669 0.07922,-0.09755 0.07923,-0.09837 0.07922,-0.0992 0.07923,-0.100005 0.07922,-0.100785 0.07923,-0.101561 0.07922,-0.102321 0.07923,-0.103052 0.07922,-0.103776 0.07923,-0.104486 0.07922,-0.105179 0.07923,-0.105844 0.07922,-0.106503 0.07923,-0.107146 0.07922,-0.107768 0.07923,-0.108368 0.07922,-0.108965 0.07923,-0.10953 0.07922,-0.110085 0.07922,-0.110618 0.07923,-0.111146 0.07923,-0.111634 0.07922,-0.112133 0.07923,-0.112584 0.07922,-0.11304 0.07923,-0.113469 0.07922,-0.11388 0.07922,-0.114274 0.07923,-0.114647 0.07922,-0.115006 0.07923,-0.115347 0.07922,-0.115663 0.07923,-0.11597 0.07923,-0.116256 0.07922,-0.116519 0.07922,-0.116767 0.07923,-0.117 0.07922,-0.117199 0.07923,-0.117402 0.07922,-0.117572 0.07923,-0.117724 0.07922,-0.117858 0.07923,-0.11798 0.07922,-0.118075 0.07923,-0.118156 0.07922,-0.118223 0.07923,-0.118259 0.07922,-0.118279 0.07923,-0.118288 0.07922,-0.118273 0.07923,-0.118242 0.07922,-0.118187 0.07923,-0.11812 0.07922,-0.118031 0.07922,-0.117915 0.07923,-0.117797 0.07923,-0.117652 0.07922,-0.117484 0.07922,-0.117309 0.07923,-0.117103 0.07923,-0.116884 0.07922,-0.116643 0.07922,-0.116386 0.07923,-0.116117 0.07922,-0.115823 0.07923,-0.11551 0.07922,-0.115173 0.07923,-0.114831 0.07922,-0.114463 0.07923,-0.114085 0.07922,-0.113673 0.07923,-0.113252 0.07922,-0.112818 0.07923,-0.112358 0.07922,-0.111885 0.07923,-0.111394 0.07922,-0.110881 0.07922,-0.110356 0.07923,-0.109815 0.07923,-0.109244 0.07922,-0.108675 0.07923,-0.108066 0.07922,-0.107462 0.07923,-0.106821 0.07922,-0.106183 0.07923,-0.105509 0.07922,-0.104835 0.07922,-0.104135 0.07923,-0.103418 0.07922,-0.102687 0.07923,-0.10194 0.07923,-0.101173 0.07922,-0.100397 0.07922,-0.0996 0.07923,-0.09879 0.07923,-0.09796 0.07922,-0.09712 0.07922,-0.09626 0.07923,-0.09539 0.07922,-0.09451 0.07923,-0.09359 0.07922,-0.09269 0.07923,-0.09174 0.07922,-0.0908 0.07923,-0.08984 0.07922,-0.08886 0.07923,-0.08787 0.07922,-0.08688 0.07923,-0.08585 0.07922,-0.08481 0.07922,-0.08377 0.07923,-0.08272 0.07923,-0.08165 0.07922,-0.08056 0.07922,-0.07946 0.07923,-0.07836 0.07923,-0.07724 0.07922,-0.0761 0.07923,-0.07494 0.07922,-0.0738 0.07922,-0.07263 0.07923,-0.07145 0.07922,-0.07025 0.07923,-0.06904 0.07922,-0.06783 0.07923,-0.06661 0.07922,-0.06536 0.07923,-0.06413 0.07923,-0.06287 0.07922,-0.06159 0.07922,-0.06032 0.07923,-0.05904 0.07922,-0.05774 0.07923,-0.05644 0.07922,-0.05511 0.07923,-0.05379 0.07922,-0.05247 0.07923,-0.05113 0.07922,-0.04979 0.07923,-0.04843 0.07923,-0.04707 0.07922,-0.04571 0.07922,-0.04432 0.07923,-0.04294 0.07922,-0.04154 0.07922,-0.04015 0.07923,-0.03874 0.07923,-0.03733 0.07922,-0.03592 0.07922,-0.0345 0.07923,-0.03307 0.07923,-0.03163 0.07922,-0.0302 0.07923,-0.02875 0.07922,-0.02731 0.07922,-0.02586 0.07923,-0.0244 0.07922,-0.02294 0.07923,-0.02148 0.07922,-0.02001 0.07923,-0.01854 0.07922,-0.01707 0.07923,-0.0156 0.07923,-0.01412 0.07922,-0.01263 0.07922,-0.01115 0.07923,-0.0097 0.07922,-0.0082 0.07922,-0.0067 0.07923,-0.0052 0.07923,-0.0038 0.07922,-0.0022 0.07923,-7.67e-4"
     style="font-style:normal;font-weight:normal;font-size:12px;font-family:Dialog;color-interpolation:linearRGB;fill:none;fill-opacity:1;fill-rule:evenodd;stroke:#9aa0a6;stroke-width:2.3;stroke-linecap:butt;stroke-linejoin:round;stroke-miterlimit:10;stroke-dasharray:none;stroke-dashoffset:0;stroke-opacity:1;color-rendering:optimizeQuality;image-rendering:optimizeQuality;shape-rendering:auto;text-rendering:geometricPrecision"
     id="path15065" />
</svg>
