<?xml version="1.0" encoding="UTF-8"?>
<svg version="1.1" viewBox="0 0 24 24" xmlns="http://www.w3.org/2000/svg">
 <path d="m1.9102 2.1348-0.14062 0.24219-1.3633 2.3594h0.89258v15.229 0.61133h0.61133 0.61133 18.689v0.89453l2.6035-1.5059-0.24414-0.14062-2.3594-1.3633v0.89453h-18.689v-11.336c0.5625 0.22656 1.0193 0.71508 1.4277 1.1504 1.8714 2.1376 3.0768 4.7709 5.082 6.7891 0.86086 0.86114 2.0388 1.569 3.3027 1.3965 1.3969-0.18674 2.4636-1.2279 3.3262-2.2598 1.5903-1.9197 2.7344-4.1777 4.4043-6.0469 0.50924-0.52611 1.1009-1.1257 1.877-1.1582-0.0059-0.62891-0.011718-1.2578-0.017578-1.8867-1.3496 0.0012601-2.4763 0.90236-3.334 1.8594-1.8247 2.0319-3.0121 4.5474-4.8613 6.5664-0.51945 0.51877-1.1556 1.1349-1.9492 1.0488-0.88974-0.18437-1.5099-0.93191-2.082-1.584-1.6915-2.0571-2.8736-4.4889-4.7363-6.4023-0.66859-0.67207-1.4965-1.2685-2.4395-1.4375v-1.3184h0.89258l-1.5039-2.6016z" color="#000000" fill="#9aa0a6" stroke-linecap="square" stroke-miterlimit="6" style="-inkscape-stroke:none"/>
</svg>
