<?xml version="1.0" encoding="UTF-8"?>
<svg width="24" height="24" version="1.1" xmlns="http://www.w3.org/2000/svg" xmlns:xlink="http://www.w3.org/1999/xlink">
 <defs>
  <linearGradient id="linearGradient18449" x1="54.444" x2="54.884" y1="96.42" y2="-9.8072" gradientTransform="matrix(.20104 0 0 .20104 .56477 1.9892)" gradientUnits="userSpaceOnUse">
   <stop stop-color="#1e1f20" offset="0"/>
   <stop stop-color="#484a4e" offset="1"/>
  </linearGradient>
 </defs>
 <rect x=".85447" y="2.361" width="22.019" height="19.366" ry="2.0119" fill="url(#linearGradient18449)"/>
 <path d="m1.8619 17.737c-0.14741 0.49795 0.44856 0.10824 0.71427 0.239 0.21705-0.4287 0.11382-1.7787 0.69501-1.1971 0.1409-0.83731 0.083083-1.6885 0.25419-2.5253 0.84185-0.78401 0.41584-1.8171 0.61152-2.7227-0.1208-0.43784 0.3921-1.4913 0.54804-0.49683 0.53942 1.4292 0.53497 2.9422 0.90376 4.3797 0.19899-0.48591 0.2513-1.6893 0.50214-1.7407 0.25307 0.4609 0.5948 1.2811 0.57703 0.32371 0.15507-0.56075-0.01834-1.892 0.69552-1.9817 0.20936 0.65316 0.23506-0.91548 0.36723-1.229 0.26731-1.5414 0.52957-3.0832 0.79703-4.6245 0.90845 0.55308 0.39361 1.9227 0.7666 2.7831l0.56057 3.7392c0.14561-0.33348 0.46326-1.2717 0.43136-0.3284 0.18816 2.1773 0.35965 4.3553 0.5419 6.5329l0.4129-5.5689c0.34644 0.55925 0.44257 1.8378 0.64161 1.9892 0.25921-1.4336 0.35528-2.8845 0.75286-4.3041 0.7804-0.53091 0.71573 1.1227 0.80305 1.538 0.14289 1.1647 0.45366 2.3145 0.69274 3.4705 0.32734-0.77512 0.51144-0.36381 0.62365 0.17883 0.48415 0.36029 0.68478-0.79512 0.83342 0.07277 0.34245 1.1142 0.91058-0.99699 0.95607-1.3784 0.1088-1.1003-0.0084-2.2378 0.52553-3.2951 0.56173 0.86445 0.34626 1.8391 0.49143 2.7608 0.10198 0.50729-0.14696 1.1037 0.51865 1.4664 0.66721 0.48984 0.58742 2.0303 1.0438 2.0242 0.53414-0.53219 0.42312 1.8865 0.68475 0.59408 0.08528-0.72862 0.14445-1.7569 0.91801-1.9631 0.18329-0.7124-0.1039-2.1523 0.61034-2.4093 0.26609 1.1818 0.88442 2.5897 1.3949 3.7358" fill="none" stroke="#d5562e" stroke-linejoin="round" stroke-width=".72369"/>
 <path d="m2.9749 1.9892c-1.3351 0-2.4101 1.0751-2.4101 2.4101v15.284c0 1.3351 1.0751 2.4097 2.4101 2.4097h18.099c1.3351 0 2.4097-1.0747 2.4097-2.4097v-15.284c0-1.3351-1.0747-2.4101-2.4097-2.4101zm0.60705 1.0052h16.885c1.1146 0 2.0116 0.89737 2.0116 2.012v14.07c0 1.1146-0.89698 2.012-2.0116 2.012h-16.885c-1.1146 0-2.012-0.89737-2.012-2.012v-14.07c0-1.1146 0.89738-2.012 2.012-2.012z" fill="#013d58" stroke-width=".51046"/>
</svg>
