<?xml version="1.0" encoding="UTF-8" standalone="no"?>
<svg
   height="24"
   width="24"
   version="1.1"
   id="svg4"
   sodipodi:docname="SerialAnalyzerIcon_36.svg"
   inkscape:version="1.1.1 (3bf5ae0d25, 2021-09-20)"
   inkscape:export-filename="C:\Code\SeriousPlotter\src\Resources\Icon192.png"
   inkscape:export-xdpi="36"
   inkscape:export-ydpi="36"
   xmlns:inkscape="http://www.inkscape.org/namespaces/inkscape"
   xmlns:sodipodi="http://sodipodi.sourceforge.net/DTD/sodipodi-0.dtd"
   xmlns:xlink="http://www.w3.org/1999/xlink"
   xmlns="http://www.w3.org/2000/svg"
   xmlns:svg="http://www.w3.org/2000/svg">
  <defs
     id="defs8">
    <marker
       style="overflow:visible"
       id="TriangleOutS"
       refX="0"
       refY="0"
       orient="auto"
       inkscape:stockid="TriangleOutS"
       inkscape:isstock="true">
      <path
         transform="scale(0.2)"
         style="fill:context-stroke;fill-rule:evenodd;stroke:context-stroke;stroke-width:1pt"
         d="M 5.77,0 -2.88,5 V -5 Z"
         id="path12068" />
    </marker>
    <marker
       style="overflow:visible"
       id="Arrow1Send"
       refX="0"
       refY="0"
       orient="auto"
       inkscape:stockid="Arrow1Send"
       inkscape:isstock="true">
      <path
         transform="matrix(-0.2,0,0,-0.2,-1.2,0)"
         style="fill:context-stroke;fill-rule:evenodd;stroke:context-stroke;stroke-width:1pt"
         d="M 0,0 5,-5 -12.5,0 5,5 Z"
         id="path11935" />
    </marker>
    <marker
       style="overflow:visible"
       id="Arrow2Mend"
       refX="0"
       refY="0"
       orient="auto"
       inkscape:stockid="Arrow2Mend"
       inkscape:isstock="true">
      <path
         transform="scale(-0.6)"
         d="M 8.7185878,4.0337352 -2.2072895,0.01601326 8.7185884,-4.0017078 c -1.7454984,2.3720609 -1.7354408,5.6174519 -6e-7,8.035443 z"
         style="fill:context-stroke;fill-rule:evenodd;stroke:context-stroke;stroke-width:0.625;stroke-linejoin:round"
         id="path11947" />
    </marker>
    <marker
       style="overflow:visible"
       id="TriangleOutS-6"
       refX="0"
       refY="0"
       orient="auto"
       inkscape:stockid="TriangleOutS"
       inkscape:isstock="true">
      <path
         transform="scale(0.2)"
         style="fill:context-stroke;fill-rule:evenodd;stroke:context-stroke;stroke-width:1pt"
         d="M 5.77,0 -2.88,5 V -5 Z"
         id="path12068-1" />
    </marker>
    <marker
       style="overflow:visible"
       id="TriangleOutS-3"
       refX="0"
       refY="0"
       orient="auto"
       inkscape:stockid="TriangleOutS"
       inkscape:isstock="true">
      <path
         transform="scale(0.2)"
         style="fill:context-stroke;fill-rule:evenodd;stroke:context-stroke;stroke-width:1pt"
         d="M 5.77,0 -2.88,5 V -5 Z"
         id="path12068-7" />
    </marker>
    <marker
       style="overflow:visible"
       id="TriangleOutS-6-5"
       refX="0"
       refY="0"
       orient="auto"
       inkscape:stockid="TriangleOutS"
       inkscape:isstock="true">
      <path
         transform="scale(0.2)"
         style="fill:context-stroke;fill-rule:evenodd;stroke:context-stroke;stroke-width:1pt"
         d="M 5.77,0 -2.88,5 V -5 Z"
         id="path12068-1-2" />
    </marker>
    <linearGradient
       inkscape:collect="always"
       xlink:href="#linearGradient19398"
       id="linearGradient18449"
       gradientUnits="userSpaceOnUse"
       x1="54.444473"
       y1="96.419617"
       x2="54.884335"
       y2="-9.8071899"
       gradientTransform="matrix(0.20104036,0,0,0.20104036,0.56476785,1.9892191)" />
    <linearGradient
       inkscape:collect="always"
       id="linearGradient19398">
      <stop
         style="stop-color:#1e1f20;stop-opacity:1"
         offset="0"
         id="stop19394" />
      <stop
         style="stop-color:#484a4e;stop-opacity:1"
         offset="1"
         id="stop19396" />
    </linearGradient>
  </defs>
  <sodipodi:namedview
     id="namedview6"
     pagecolor="#505050"
     bordercolor="#eeeeee"
     borderopacity="1"
     inkscape:pageshadow="0"
     inkscape:pageopacity="0"
     inkscape:pagecheckerboard="0"
     showgrid="false"
     inkscape:zoom="18.1875"
     inkscape:cx="9.0996564"
     inkscape:cy="32.714777"
     inkscape:window-width="2473"
     inkscape:window-height="1508"
     inkscape:window-x="891"
     inkscape:window-y="509"
     inkscape:window-maximized="0"
     inkscape:current-layer="svg4"
     fit-margin-top="0"
     fit-margin-left="0"
     fit-margin-right="0"
     fit-margin-bottom="0" />
  <rect
     style="fill:url(#linearGradient18449);fill-opacity:1;stroke:none;stroke-width:0.594824;stroke-linejoin:round;stroke-miterlimit:4;stroke-dasharray:none;stroke-opacity:1"
     id="rect10897-9-8-5"
     width="22.019146"
     height="19.366196"
     x="0.85447282"
     y="2.3609829"
     ry="2.0119112" />
  <path
     style="fill:none;stroke:#d5562e;stroke-width:0.723691;stroke-linecap:butt;stroke-linejoin:round;stroke-miterlimit:4;stroke-dasharray:none;stroke-opacity:1"
     d="m 1.8619108,17.737023 c -0.1474082,0.497952 0.4485573,0.108237 0.7142705,0.239003 0.217051,-0.428704 0.1138159,-1.778693 0.6950053,-1.197098 0.1409047,-0.837311 0.083083,-1.688521 0.2541916,-2.525296 0.8418476,-0.784009 0.415836,-1.817122 0.6115166,-2.722654 -0.120795,-0.437837 0.392103,-1.491316 0.548035,-0.496829 0.539421,1.429203 0.534969,2.942168 0.903762,4.379698 0.198989,-0.485906 0.251302,-1.689269 0.502142,-1.740682 0.253069,0.460902 0.594801,1.281058 0.577026,0.323706 0.155072,-0.560748 -0.01834,-1.892025 0.695523,-1.981739 0.209362,0.653163 0.235056,-0.915475 0.367233,-1.228996 0.267312,-1.54138 0.529568,-3.083174 0.797034,-4.624544 0.908448,0.55308 0.39361,1.922688 0.766598,2.783058 l 0.560567,3.739196 c 0.1456122,-0.333481 0.4632592,-1.271674 0.4313552,-0.328405 0.188161,2.177324 0.359654,4.355304 0.5419,6.53286 l 0.412897,-5.56888 c 0.346445,0.559251 0.442567,1.837841 0.641614,1.989182 0.259211,-1.433564 0.355284,-2.884528 0.752855,-4.304059 0.780396,-0.530913 0.715728,1.122742 0.80305,1.538001 0.142886,1.164678 0.453655,2.314539 0.692744,3.470516 0.32734,-0.775122 0.511439,-0.363812 0.623647,0.178826 0.484153,0.36029 0.684781,-0.795124 0.83342,0.07277 0.342452,1.114193 0.910576,-0.996989 0.956074,-1.378388 0.108803,-1.10026 -0.0084,-2.237817 0.525527,-3.295101 0.561732,0.864453 0.346257,1.83913 0.491432,2.760752 0.101983,0.507294 -0.146965,1.103749 0.518654,1.466366 0.667212,0.489844 0.587415,2.030283 1.043822,2.02419 0.534137,-0.53219 0.423116,1.886472 0.684751,0.594085 0.08528,-0.728625 0.144448,-1.756939 0.91801,-1.963141 0.183292,-0.712396 -0.103898,-2.152272 0.610335,-2.409306 0.266087,1.18182 0.884416,2.58968 1.394933,3.735782"
     id="path1021-7-9-0-7"
     sodipodi:nodetypes="cccccccccccccccccccccccccccccccc" />
  <path
     id="rect904-7-5-1-5"
     style="fill:#013d58;fill-opacity:1;stroke-width:0.51046"
     d="m 2.9749007,1.9892192 c -1.3350641,0 -2.41013305,1.0750688 -2.41013305,2.4101278 v 15.284171 c 0,1.335059 1.07506895,2.409737 2.41013305,2.409737 H 21.073641 c 1.33506,0 2.409732,-1.074678 2.409732,-2.409737 V 4.399347 c 0,-1.335059 -1.074672,-2.4101278 -2.409732,-2.4101278 z M 3.5819495,2.9944209 H 20.466593 c 1.114604,0 2.011579,0.897371 2.011579,2.0119751 v 14.069682 c 0,1.114604 -0.896975,2.011975 -2.011579,2.011975 H 3.5819495 c -1.1146036,0 -2.01198,-0.897371 -2.01198,-2.011975 V 5.006396 c 0,-1.1146041 0.8973764,-2.0119751 2.01198,-2.0119751 z"
     sodipodi:nodetypes="ssssssssssssssssss" />
</svg>
