<?xml version="1.0" encoding="UTF-8" standalone="no"?>
<svg
   width="512"
   height="512"
   version="1.1"
   id="svg15"
   sodipodi:docname="SerialAnalyzerIcon.svg"
   inkscape:version="1.1.1 (3bf5ae0d25, 2021-09-20)"
   inkscape:export-filename="C:\Code\SeriousPlotter\src\Resources\icon192.png"
   inkscape:export-xdpi="36"
   inkscape:export-ydpi="36"
   xmlns:inkscape="http://www.inkscape.org/namespaces/inkscape"
   xmlns:sodipodi="http://sodipodi.sourceforge.net/DTD/sodipodi-0.dtd"
   xmlns="http://www.w3.org/2000/svg"
   xmlns:svg="http://www.w3.org/2000/svg">
  <sodipodi:namedview
     id="namedview17"
     pagecolor="#505050"
     bordercolor="#eeeeee"
     borderopacity="1"
     inkscape:pageshadow="0"
     inkscape:pageopacity="0"
     inkscape:pagecheckerboard="0"
     showgrid="false"
     inkscape:zoom="1.2056723"
     inkscape:cx="252.14148"
     inkscape:cy="164.63843"
     inkscape:window-width="1664"
     inkscape:window-height="1111"
     inkscape:window-x="1189"
     inkscape:window-y="254"
     inkscape:window-maximized="0"
     inkscape:current-layer="svg15" />
  <defs
     id="defs7">
    <linearGradient
       id="linearGradient18449"
       x1="54.444"
       x2="54.884"
       y1="96.42"
       y2="-9.8072"
       gradientTransform="matrix(4.4 0 0 4.4 5.0178 37.375)"
       gradientUnits="userSpaceOnUse">
      <stop
         stop-color="#1e1f20"
         offset="0"
         id="stop2" />
      <stop
         stop-color="#484a4e"
         offset="1"
         id="stop4" />
    </linearGradient>
  </defs>
  <rect
     x="11.358"
     y="45.511"
     width="481.91"
     height="423.85"
     ry="44.033"
     fill="url(#linearGradient18449)"
     id="rect9" />
  <path
     d="M 21.090849,388.48132 C 83.416482,376.74289 69.321902,251.2794 85.227684,213.78538 101.13347,176.29136 106.9003,299.7228 114.9723,331.1848 c 17.76842,-20.0021 18.56935,-70.38257 38.841,-74.3852 4.5822,14.295 5.1445,-20.036 8.0374,-26.898 5.8504,-33.735 6.89813,-70.9979 17.444,-101.21 17.39976,49.08154 11.20002,115.23259 18.4903,163.8604 3.1869,-7.2985 30.6957,-48.9454 29.9973,-28.3008 4.1182,47.653 7.8715,95.321 11.86,142.98 19.5264,-69.09352 33.54128,-260.55799 47.1317,-138.882 9.76751,49.13536 1.88569,74.46915 28.811,79.8697 20.24227,0.87802 32.72827,15.44635 39.165,-28.5751 5.73099,-70.31792 13.3876,-106.73739 22.258,-11.695 2.232,22.67007 15.14445,26.39527 22.49418,39.71728 29.56825,66.19201 17.85898,62.97161 46.78082,6.71372 26.78518,-67.60101 27.64519,-8.03493 43.888,29.032"
     fill="none"
     stroke="#d5562e"
     stroke-linejoin="round"
     stroke-width="15.839"
     id="path11"
     sodipodi:nodetypes="cccccccccccccccc"
     style="stroke-width:22;stroke-miterlimit:4;stroke-dasharray:none" />
  <path
     d="m 57.766,37.375 c -29.219,0 -52.749,23.529 -52.749,52.748 v 334.51 c 0,29.219 23.529,52.74 52.749,52.74 h 396.11 c 29.219,0 52.74,-23.521 52.74,-52.74 V 90.123 c 0,-29.219 -23.52,-52.748 -52.74,-52.748 z m 15.286,24 h 365.54 c 24.394,0 44.026,19.64 44.026,44.034 v 303.93 c 0,24.394 -19.631,44.034 -44.026,44.034 H 73.052 c -24.394,0 -44.034,-19.64 -44.034,-44.034 v -303.93 c 0,-24.394 19.64,-44.034 44.034,-44.034 z"
     fill="#013d58"
     stroke-width="11.172"
     id="path13"
     sodipodi:nodetypes="ssssssssssssssssss" />
</svg>
