<?xml version="1.0" encoding="UTF-8"?>
<svg version="1.1" viewBox="0 0 24 24" xmlns="http://www.w3.org/2000/svg">
 <path d="m1.9102 2.1348-0.14062 0.24219-1.3633 2.3594h0.89258v15.229 0.61133h0.61133 0.61133 18.689v0.89453l2.6035-1.5059-0.24414-0.14062-2.3594-1.3633v0.89453h-18.689v-2.0352l0.085938 0.17774c1.1653-0.48282 1.6047-1.4214 1.9805-1.875a1.0395 0.96216 0 0 0 0.025391-0.033203c1.062-1.4006 1.971-2.9588 2.5098-4.6582 0.064099 0.1616 0.13226 0.31908 0.20703 0.4707 0.97249 2.0035 2.9675 3.2112 4.9102 3.9277a1.0395 0.96216 0 0 0 0.001954 0c3.1435 1.1557 6.4425 1.6321 9.6387 2.041a1.0395 0.96216 0 0 0 0.007813 0c0.28749 0.034863 0.57439 0.069346 0.86133 0.10156l0.25-1.9102c-0.28071-0.031517-0.56037-0.063772-0.83984-0.097656l-0.001953-0.001953c-3.1661-0.40518-6.2924-0.87002-9.1484-1.9199h-0.001954c-1.6446-0.60673-3.1268-1.5752-3.7832-2.9297a1.0395 0.96216 0 0 0-0.0019532-0.007812c-0.36144-0.7319-0.64215-2.0816-0.80469-3.4023-0.16254-1.3207-0.23245-2.6142-0.31836-3.4434a1.0395 0.96216 0 0 0-1.0547-0.86914 1.0395 0.96216 0 0 0-1.0176 0.90625s-0.25374 3.8254-0.60938 5.4727a1.0395 0.96216 0 0 0-0.0039063 0.023438c-0.34825 1.8422-1.289 3.5896-2.498 5.1855-0.18515 0.22449-0.25311 0.25332-0.39453 0.42969v-7.8711-2.3008h0.89258l-1.5039-2.6016z" color="#000000" fill="#9aa0a6" stroke-linecap="square" stroke-miterlimit="6" style="-inkscape-stroke:none"/>
</svg>
